<?xml version="1.0" standalone="no"?>
<!DOCTYPE svg PUBLIC "-//W3C//DTD SVG 20010904//EN"
 "http://www.w3.org/TR/2001/REC-SVG-20010904/DTD/svg10.dtd">
<svg version="1.0" xmlns="http://www.w3.org/2000/svg"
 width="462.000000pt" height="54.000000pt" viewBox="0 0 462.000000 54.000000"
 preserveAspectRatio="xMidYMid meet">
<metadata>
Created by potrace 1.10, written by Peter Selinger 2001-2011
</metadata>
<g transform="translate(0.000000,54.000000) scale(0.100000,-0.100000)"
fill="#ffffff" stroke="none">
<path d="M2269 488 c-8 -14 -23 -18 -65 -18 l-55 0 3 -57 3 -58 43 3 c39 3 42
1 42 -21 0 -14 -7 -41 -15 -60 -8 -20 -15 -52 -15 -70 0 -19 -6 -50 -14 -68
-8 -19 -16 -52 -18 -74 l-3 -40 110 -3 c127 -3 135 1 135 79 0 25 7 66 15 89
8 23 15 62 15 87 0 73 10 83 88 83 80 0 96 -10 76 -48 -8 -15 -14 -41 -14 -59
0 -17 -5 -44 -11 -60 -9 -24 -17 -60 -31 -148 -3 -19 3 -20 108 -23 129 -3
132 -1 140 79 3 30 11 79 19 109 41 168 39 213 -9 245 -21 14 -50 17 -168 15
-174 -3 -166 -4 -170 16 -2 14 -19 17 -101 18 -85 1 -100 -2 -108 -16z"/>
<path d="M3049 488 c-8 -14 -23 -18 -65 -18 l-55 0 3 -57 3 -58 43 3 c39 3 42
1 42 -21 0 -14 -7 -41 -15 -60 -8 -20 -15 -52 -15 -70 0 -19 -6 -50 -14 -68
-8 -19 -16 -52 -18 -74 l-3 -40 109 -3 c71 -2 113 1 122 9 9 7 14 31 14 64 0
29 7 72 15 95 8 23 15 62 15 87 0 73 10 83 88 83 80 0 96 -10 76 -48 -8 -15
-14 -41 -14 -59 0 -17 -5 -44 -11 -60 -9 -24 -17 -60 -31 -148 -3 -19 3 -20
108 -23 129 -3 132 -1 140 79 3 30 12 77 20 105 8 28 16 90 17 138 2 82 1 88
-23 107 -23 18 -39 20 -170 18 -177 -2 -168 -2 -172 17 -2 14 -19 17 -101 18
-85 1 -100 -2 -108 -16z"/>
<path d="M3675 498 c-9 -23 1 -138 13 -150 23 -23 33 7 30 83 -2 61 -6 74 -21
77 -9 2 -19 -2 -22 -10z"/>
<path d="M3764 497 c-3 -8 -4 -45 -2 -83 3 -61 5 -69 23 -69 18 0 20 7 20 80
0 68 -3 80 -18 83 -9 2 -20 -3 -23 -11z"/>
<path d="M3919 494 c-4 -6 -13 -44 -20 -85 -6 -41 -17 -99 -25 -129 -8 -30
-15 -75 -17 -100 l-2 -45 114 3 c63 1 116 4 118 6 2 2 8 42 13 89 13 125 14
127 110 127 43 0 81 -4 85 -9 5 -10 -5 -65 -31 -157 -8 -28 -14 -63 -14 -78 0
-15 -7 -40 -15 -55 -8 -16 -11 -31 -8 -35 10 -10 241 -7 248 4 3 5 10 43 14
84 5 41 12 79 16 86 4 7 11 37 16 68 4 32 11 69 15 84 9 37 -2 73 -29 98 -21
20 -32 21 -191 19 -149 -2 -170 0 -181 15 -10 13 -31 17 -110 19 -59 1 -100
-2 -106 -9z"/>
<path d="M20 444 l0 -57 192 4 193 4 0 -133 c1 -111 -2 -135 -15 -141 -8 -4
-91 -4 -185 -1 -94 4 -173 6 -177 3 -5 -2 -8 -26 -8 -54 l0 -49 279 0 280 0
28 24 27 24 1 187 c1 185 1 189 -23 217 l-24 28 -284 0 -284 0 0 -56z"/>
<path d="M696 492 c-2 -4 0 -29 6 -56 9 -42 6 -335 -3 -391 -4 -19 1 -20 121
-20 l125 0 -1 30 c-1 17 -3 62 -5 100 l-4 70 203 3 203 2 -3 53 -3 52 -193 0
c-161 0 -195 3 -202 15 -4 8 -4 41 1 73 5 32 7 62 4 68 -7 11 -242 12 -249 1z"/>
<path d="M1429 498 c0 -2 -1 -90 -2 -196 l-2 -193 119 3 119 3 0 190 -1 190
-116 3 c-64 1 -116 1 -117 0z"/>
<path d="M1827 494 c-4 -4 -7 -50 -7 -103 0 -53 -7 -136 -15 -186 -8 -49 -15
-111 -15 -137 l0 -48 118 0 118 0 13 108 c8 59 17 157 22 217 4 61 9 119 11
130 3 19 -3 20 -118 23 -66 1 -123 -1 -127 -4z"/>
</g>
</svg>
